<?xml version="1.0" standalone="no"?>
<!DOCTYPE svg PUBLIC "-//W3C//DTD SVG 20010904//EN"
 "http://www.w3.org/TR/2001/REC-SVG-20010904/DTD/svg10.dtd">
<svg version="1.0" xmlns="http://www.w3.org/2000/svg"
 width="157.000000pt" height="148.000000pt" viewBox="0 0 157.000000 148.000000"
 preserveAspectRatio="xMidYMid meet">

<g transform="translate(0.000000,148.000000) scale(0.100000,-0.100000)"
fill="#000000" stroke="none">
<path d="M0 740 l0 -740 785 0 785 0 0 740 0 740 -785 0 -785 0 0 -740z m961
683 c6 -46 4 -390 -3 -428 -5 -27 -13 -74 -17 -102 l-8 -53 43 0 c63 0 96 -15
92 -43 -3 -20 -9 -22 -80 -25 -68 -2 -78 -5 -78 -21 0 -15 -42 -41 -66 -41 -1
0 -4 15 -6 33 -2 24 -8 32 -22 32 -11 0 -21 -5 -23 -12 -3 -7 3 -9 16 -6 16 4
21 1 21 -16 0 -23 -25 -29 -33 -8 -3 7 -6 4 -6 -6 -1 -26 -24 -16 -32 14 -7
23 -7 23 -8 2 -1 -13 -7 -23 -16 -23 -11 0 -15 -18 -17 -82 -3 -79 -4 -82 -17
-55 l-15 28 -115 -2 -116 -2 -3 50 -3 50 62 7 c34 3 89 6 122 6 50 0 58 2 53
16 -3 9 -6 20 -6 26 0 6 -36 8 -94 6 -52 -1 -98 1 -102 5 -4 4 -1 18 6 32 12
22 19 24 99 27 l86 3 3 33 c2 17 7 32 12 32 4 0 11 8 14 17 6 15 4 15 -13 -1
-16 -15 -24 -16 -35 -7 -26 21 16 141 49 141 7 0 15 5 17 11 2 6 16 12 30 12
34 0 42 20 23 57 -19 37 -19 50 0 50 8 0 16 -10 16 -22 l2 -23 4 23 c4 18 11
22 41 22 31 1 34 2 18 11 -10 6 -34 9 -52 6 -25 -4 -32 -3 -27 6 4 7 0 6 -10
-2 -15 -12 -17 -11 -17 7 0 23 35 52 63 52 10 0 29 -8 43 -17 23 -15 25 -21
20 -56 -4 -22 -14 -53 -23 -68 -18 -30 -13 -45 11 -36 40 16 68 172 46 254
-10 35 -11 48 -2 51 7 2 12 12 12 23 0 12 7 19 20 19 11 0 20 -3 21 -7z m-457
-29 c3 -9 6 -94 6 -190 l0 -175 -64 2 -65 2 -5 61 c-11 124 -16 303 -10 309 4
4 35 7 70 7 47 0 63 -4 68 -16z m-70 -629 c3 -116 6 -288 7 -382 l1 -172 146
-3 c135 -3 147 -5 150 -22 4 -18 -5 -19 -309 -12 -173 4 -318 12 -324 17 -5 5
20 9 65 10 41 1 113 2 160 3 l85 1 3 33 3 33 -89 -7 c-84 -6 -91 -5 -101 14
-15 28 -15 26 20 61 28 29 35 31 103 31 l72 0 -1 33 -1 32 -56 -3 c-49 -3 -58
-1 -68 18 -9 17 -9 25 4 39 9 10 16 22 16 28 0 15 24 23 65 23 l34 0 0 208 c0
239 0 237 5 231 3 -2 7 -99 10 -214z m700 -87 c15 -61 1 -69 -118 -66 l-101 3
-3 53 -3 53 108 -3 108 -3 9 -37z m-414 -183 l0 -55 -129 0 -129 0 -4 50 -3
49 40 4 c22 2 82 4 133 5 l92 2 0 -55z m512 43 c18 -14 27 -66 15 -86 -6 -9
-52 -12 -174 -12 l-165 0 6 31 c3 17 6 42 6 55 l0 24 148 0 c103 0 153 -4 164
-12z m-509 -195 c13 -78 22 -73 -123 -73 l-130 0 0 49 0 50 43 3 c23 2 78 4
123 6 l81 3 6 -38z m609 22 c10 -4 20 -23 24 -43 12 -65 -19 -70 -330 -55
-118 5 -136 8 -132 22 2 9 7 34 11 55 l6 39 202 -6 c111 -3 210 -9 219 -12z
m76 -170 c2 -2 1 -8 -3 -14 -4 -7 -93 -11 -266 -11 -209 0 -259 3 -259 13 0 8
2 16 4 18 5 5 519 -1 524 -6z"/>
<path d="M808 1213 c12 -2 30 -2 40 0 9 3 -1 5 -23 4 -22 0 -30 -2 -17 -4z"/>
<path d="M816 1052 c-3 -6 -8 -31 -10 -56 -4 -35 -1 -46 10 -46 15 0 15 -1 18
52 3 40 -7 67 -18 50z"/>
<path d="M798 903 c7 -3 16 -2 19 1 4 3 -2 6 -13 5 -11 0 -14 -3 -6 -6z"/>
<path d="M860 765 c0 -8 2 -15 4 -15 2 0 6 7 10 15 3 8 1 15 -4 15 -6 0 -10
-7 -10 -15z"/>
<path d="M396 1374 c-22 -21 -20 -67 2 -87 53 -48 127 19 87 79 -18 28 -65 33
-89 8z"/>
<path d="M396 1174 c-20 -20 -20 -44 0 -72 12 -18 24 -22 52 -20 35 3 37 5 40
41 2 21 -2 45 -9 53 -15 19 -64 18 -83 -2z"/>
</g>
</svg>
